# xmcd
#
# Track frame offsets: 
#        150
#        23909
#        46453
#        77452
#        108774
#        167522
#        184482
#        234838
#
# Disc length: 3575 seconds
#
# Revision: 0
# Processed by: cddbd v1.5.2PL0 Copyright (c) Steve Scherf et al.
# Submitted via: ExactAudioCopy v0.95b3
#
DISCID=540df508
DTITLE=Abrahams, Mick - Leaving Home Blues ELECTRIC
DYEAR=2005
DGENRE=Blues
TTITLE0=You Got It Wrong
TTITLE1=Lies
TTITLE2=The Victim
TTITLE3=I Wonder Who
TTITLE4=Cat Squirrel
TTITLE5=How Can A Poor Man Stand Such Times And Live?
TTITLE6=The Dead Man's Hill
TTITLE7=Rock Me Baby
EXTD=
EXTT0=
EXTT1=
EXTT2=
EXTT3=
EXTT4=
EXTT5=
EXTT6=
EXTT7=
PLAYORDER=
